<?xml version="1.0" encoding="UTF-8" standalone="no"?>
<!-- Created with Inkscape (http://www.inkscape.org/) -->

<svg
   xmlns:dc="http://purl.org/dc/elements/1.1/"
   xmlns:cc="http://creativecommons.org/ns#"
   xmlns:rdf="http://www.w3.org/1999/02/22-rdf-syntax-ns#"
   xmlns:svg="http://www.w3.org/2000/svg"
   xmlns="http://www.w3.org/2000/svg"
   xmlns:sodipodi="http://sodipodi.sourceforge.net/DTD/sodipodi-0.dtd"
   xmlns:inkscape="http://www.inkscape.org/namespaces/inkscape"
   width="210mm"
   height="297mm"
   viewBox="0 0 210 297"
   version="1.1"
   id="svg8"
   sodipodi:docname="template_persona.svg"
   inkscape:version="0.92.2 2405546, 2018-03-11">
  <defs
     id="defs2" />
  <sodipodi:namedview
     id="base"
     pagecolor="#ffffff"
     bordercolor="#666666"
     borderopacity="1.0"
     inkscape:pageopacity="0.0"
     inkscape:pageshadow="2"
     inkscape:zoom="0.98994949"
     inkscape:cx="407.62054"
     inkscape:cy="406.23449"
     inkscape:document-units="mm"
     inkscape:current-layer="layer1"
     showgrid="true"
     inkscape:window-width="1916"
     inkscape:window-height="1041"
     inkscape:window-x="1080"
     inkscape:window-y="18"
     inkscape:window-maximized="0">
    <inkscape:grid
       type="xygrid"
       id="grid141" />
  </sodipodi:namedview>
  <metadata
     id="metadata5">
    <rdf:RDF>
      <cc:Work
         rdf:about="">
        <dc:format>image/svg+xml</dc:format>
        <dc:type
           rdf:resource="http://purl.org/dc/dcmitype/StillImage" />
      </cc:Work>
    </rdf:RDF>
  </metadata>
  <g
     inkscape:label="Layer 1"
     inkscape:groupmode="layer"
     id="layer1">
    <path
       id="rect10"
       style="fill:none;stroke:#000000;stroke-width:0.66475654;stroke-miterlimit:4;stroke-dasharray:none"
       d="M 29.080396,60.740996 V 111.79167 H 103.58954 V 60.740996 Z m 16.296161,15.170346 c 0.110733,-0.01121 0.237109,0.04225 0.340032,0.196337 0.06978,0.104473 0.188071,0.164955 0.289388,0.240758 0.01468,0.0063 0.02853,0.01253 0.03101,0.0222 0.0062,0.0051 0.01371,0.0089 0.01963,0.01422 0.03409,0.03059 0.123864,0.06803 0.09147,0.09995 -0.08719,0.0859 -0.197922,0.149817 -0.311092,0.211438 -0.07878,0.09745 -0.142002,0.130033 -0.204123,0.11727 -0.0086,0.0055 -0.01844,0.0099 -0.02687,0.01556 -0.0055,0.0037 0.0041,0.01155 0.0062,0.01733 -0.01148,0.0028 -0.02262,0.0053 -0.03411,0.008 -0.133567,0.01274 -0.264758,0.02829 -0.399458,0.01954 -0.617535,-0.0401 -0.602519,-0.550512 -0.05736,-0.573906 -0.04978,-0.197291 0.08333,-0.371274 0.25528,-0.388677 z"
       inkscape:connector-curvature="0" />
    <path
       id="rect817"
       transform="scale(0.26458333)"
       style="fill:none;stroke:#000000;stroke-width:2.70992136;stroke-miterlimit:4;stroke-dasharray:none"
       d="m 122.22852,242.67773 v 95.96289 h 97.48046 v -95.96289 z m 49.27343,53.59766 c 0.41852,-0.0493 0.89616,0.18576 1.28516,0.86328 0.26374,0.45936 0.71082,0.7253 1.09375,1.0586 0.0555,0.0275 0.10785,0.0551 0.11719,0.0976 0.0233,0.0224 0.0518,0.0392 0.0742,0.0625 0.12884,0.13452 0.46815,0.29912 0.3457,0.43946 -0.32955,0.3777 -0.74805,0.65874 -1.17578,0.92968 -0.29775,0.42849 -0.5367,0.57175 -0.77149,0.51563 -0.0325,0.0242 -0.0697,0.0434 -0.10156,0.0684 -0.0208,0.0163 0.0155,0.0508 0.0234,0.0762 -0.0434,0.0121 -0.0855,0.0231 -0.12891,0.0352 -0.50482,0.056 -1.00066,0.12441 -1.50976,0.0859 -2.33399,-0.17633 -2.27724,-2.42057 -0.2168,-2.52343 -0.18813,-0.86748 0.31494,-1.63247 0.96484,-1.70899 z" />
    <path
       style="fill:none;stroke:#000000;stroke-width:0.26458332px;stroke-linecap:butt;stroke-linejoin:miter;stroke-opacity:1"
       d="m 32.33961,89.598845 c 0,0 -0.282103,-10.557149 9.354437,-10.557147 3.741772,10e-7 8.686257,-0.267269 8.686257,-0.267269 0,0 7.483541,1.603619 7.750815,10.824416"
       id="path827"
       inkscape:connector-curvature="0"
       sodipodi:nodetypes="cscc" />
    <path
       style="fill:none;stroke:#000000;stroke-width:0.26458332px;stroke-linecap:butt;stroke-linejoin:miter;stroke-opacity:1"
       d="m 50.380304,78.774429 c 0,0 0,0 0,0 z"
       id="path829"
       inkscape:connector-curvature="0" />
    <g
       id="g76"
       transform="translate(-29.733735,0.60135644)">
      <circle
         r="7.416729"
         cy="73.161766"
         cx="74.701828"
         id="path821"
         style="fill:#ffffff;stroke:#000000;stroke-width:0.71700001;stroke-miterlimit:4;stroke-dasharray:none" />
      <path
         transform="scale(0.26458333)"
         inkscape:connector-curvature="0"
         id="path72"
         d="m 278.98294,302.87212 c -2.8906,-0.39424 -5.3883,-1.17953 -8.33376,-2.62018 -7.4744,-3.65579 -12.60536,-10.30962 -14.32269,-18.57368 -0.65369,-3.14562 -0.52857,-8.71002 0.2622,-11.66106 2.0645,-7.7044 7.01535,-13.78037 14.06049,-17.25581 4.61707,-2.27766 9.27474,-3.14551 14.1953,-2.64499 6.2138,0.63207 11.32591,2.99753 15.83639,7.32778 3.63294,3.48776 6.09436,7.66659 7.40128,12.56535 0.57415,2.15211 0.65392,2.94394 0.65392,6.4917 0,3.54775 -0.0798,4.33958 -0.65392,6.49169 -1.25434,4.70166 -3.39265,8.45355 -6.85611,12.02973 -4.81948,4.97634 -10.79639,7.64404 -17.85595,7.96972 -1.44066,0.0665 -3.41488,0.0124 -4.38715,-0.12025 z"
         style="fill:#ffffff;stroke-width:0.25253814" />
    </g>
    <text
       xml:space="preserve"
       style="font-style:normal;font-weight:normal;font-size:10.58333302px;line-height:1.25;font-family:sans-serif;letter-spacing:0px;word-spacing:0px;fill:#000000;fill-opacity:1;stroke:none;stroke-width:0.26458332"
       x="68.554634"
       y="69.553627"
       id="text80"><tspan
         sodipodi:role="line"
         id="tspan78"
         x="68.554634"
         y="69.553627"
         style="font-size:6.3499999px;stroke-width:0.26458332">&lt;Titel&gt;</tspan></text>
    <text
       xml:space="preserve"
       style="font-style:normal;font-weight:normal;font-size:10.58333302px;line-height:1.25;font-family:sans-serif;letter-spacing:0px;word-spacing:0px;fill:#000000;fill-opacity:1;stroke:none;stroke-width:0.26458332"
       x="89.802559"
       y="67.54911"
       id="text84"><tspan
         sodipodi:role="line"
         id="tspan82"
         x="89.802559"
         y="76.91288"
         style="stroke-width:0.26458332" /></text>
    <text
       xml:space="preserve"
       style="font-style:normal;font-variant:normal;font-weight:normal;font-stretch:normal;font-size:4.23333311px;line-height:1.25;font-family:'Arimo for Powerline';-inkscape-font-specification:'Arimo for Powerline, Normal';font-variant-ligatures:normal;font-variant-caps:normal;font-variant-numeric:normal;font-feature-settings:normal;text-align:start;letter-spacing:0px;word-spacing:0px;writing-mode:lr-tb;text-anchor:start;fill:#000000;fill-opacity:1;stroke:none;stroke-width:0.26458332"
       x="62.177082"
       y="74.75"
       id="text182"><tspan
         sodipodi:role="line"
         id="tspan180"
         x="62.177082"
         y="74.75"
         style="stroke-width:0.26458332">Does:</tspan><tspan
         sodipodi:role="line"
         x="62.177082"
         y="80.041664"
         style="stroke-width:0.26458332"
         id="tspan184" /><tspan
         sodipodi:role="line"
         x="62.177082"
         y="85.333336"
         style="stroke-width:0.26458332"
         id="tspan186" /><tspan
         sodipodi:role="line"
         x="62.177082"
         y="90.625"
         style="stroke-width:0.26458332"
         id="tspan188"></tspan><tspan
         sodipodi:role="line"
         x="62.177082"
         y="95.916664"
         style="stroke-width:0.26458332"
         id="tspan190">Wants:</tspan></text>
    <circle
       style="fill:#000000;stroke-width:0.26458332"
       id="path192"
       cx="64.161461"
       cy="78.057289"
       r="0.66145831" />
    <circle
       style="fill:#000000;stroke-width:0.26458332"
       id="path192-8"
       cx="64.161461"
       cy="80.714935"
       r="0.66145831" />
    <circle
       style="fill:#000000;stroke-width:0.26458332"
       id="path192-5"
       cx="64.161461"
       cy="83.348953"
       r="0.66145831" />
    <circle
       style="fill:#000000;stroke-width:0.26458332"
       id="path192-8-0"
       cx="64.161461"
       cy="86.01841"
       r="0.66145831" />
    <circle
       style="fill:#000000;stroke-width:0.26458332"
       id="path192-56"
       cx="64.161461"
       cy="99.246391"
       r="0.66145831" />
    <circle
       style="fill:#000000;stroke-width:0.26458332"
       id="path192-8-1"
       cx="64.161461"
       cy="101.88649"
       r="0.66145831" />
    <circle
       style="fill:#000000;stroke-width:0.26458332"
       id="path192-5-1"
       cx="64.161461"
       cy="104.53806"
       r="0.66145831" />
    <circle
       style="fill:#000000;stroke-width:0.26458332"
       id="path192-8-0-5"
       cx="64.161461"
       cy="107.16145"
       r="0.66145831" />
    <text
       xml:space="preserve"
       style="font-style:normal;font-variant:normal;font-weight:normal;font-stretch:normal;font-size:4.23333311px;line-height:1.25;font-family:'Arimo for Powerline';-inkscape-font-specification:'Arimo for Powerline, Normal';font-variant-ligatures:normal;font-variant-caps:normal;font-variant-numeric:normal;font-feature-settings:normal;text-align:start;letter-spacing:0px;word-spacing:0px;writing-mode:lr-tb;text-anchor:start;fill:#000000;fill-opacity:1;stroke:none;stroke-width:0.26458332"
       x="33.072918"
       y="95.916664"
       id="text280"><tspan
         sodipodi:role="line"
         id="tspan278"
         x="33.072918"
         y="95.916664"
         style="stroke-width:0.26458332">Response:</tspan></text>
    <text
       xml:space="preserve"
       style="font-style:normal;font-variant:normal;font-weight:normal;font-stretch:normal;font-size:4.23333311px;line-height:1.25;font-family:'Arimo for Powerline';-inkscape-font-specification:'Arimo for Powerline, Normal';font-variant-ligatures:normal;font-variant-caps:normal;font-variant-numeric:normal;font-feature-settings:normal;text-align:start;letter-spacing:0px;word-spacing:0px;writing-mode:lr-tb;text-anchor:start;fill:#000000;fill-opacity:1;stroke:none;stroke-width:0.26458332"
       x="35.71875"
       y="99.885414"
       id="text284"><tspan
         sodipodi:role="line"
         id="tspan282"
         x="35.71875"
         y="103.69861"
         style="stroke-width:0.26458332" /></text>
    <text
       xml:space="preserve"
       style="font-style:normal;font-variant:normal;font-weight:normal;font-stretch:normal;font-size:2.82222223px;line-height:1.25;font-family:'Arimo for Powerline';-inkscape-font-specification:'Arimo for Powerline, Normal';font-variant-ligatures:normal;font-variant-caps:normal;font-variant-numeric:normal;font-feature-settings:normal;text-align:start;letter-spacing:0px;word-spacing:0px;writing-mode:lr-tb;text-anchor:start;fill:#000000;fill-opacity:1;stroke:none;stroke-width:0.26458332"
       x="35.71875"
       y="99.885414"
       id="text288"><tspan
         sodipodi:role="line"
         id="tspan286"
         x="35.71875"
         y="99.885414"
         style="stroke-width:0.26458332">word1:</tspan><tspan
         sodipodi:role="line"
         x="35.71875"
         y="103.41319"
         style="stroke-width:0.26458332"
         id="tspan290">word2:</tspan><tspan
         sodipodi:role="line"
         x="35.71875"
         y="106.94097"
         style="stroke-width:0.26458332"
         id="tspan292">word3:</tspan></text>
    <text
       xml:space="preserve"
       style="font-style:normal;font-variant:normal;font-weight:normal;font-stretch:normal;font-size:2.82222223px;line-height:1.25;font-family:'Arimo for Powerline';-inkscape-font-specification:'Arimo for Powerline, Normal';font-variant-ligatures:normal;font-variant-caps:normal;font-variant-numeric:normal;font-feature-settings:normal;text-align:start;letter-spacing:0px;word-spacing:0px;writing-mode:lr-tb;text-anchor:start;fill:#000000;fill-opacity:1;stroke:none;stroke-width:0.26458332"
       x="67.46875"
       y="119.72916"
       id="text296"><tspan
         sodipodi:role="line"
         id="tspan294"
         x="67.46875"
         y="122.27129"
         style="stroke-width:0.26458332"></tspan></text>
    <path
       style="fill:none;stroke:#000000;stroke-width:0.26458332px;stroke-linecap:butt;stroke-linejoin:miter;stroke-opacity:1"
       d="m 44.979166,97.239583 v 2.645834"
       id="path298"
       inkscape:connector-curvature="0" />
    <path
       style="fill:none;stroke:#000000;stroke-width:0.26458332px;stroke-linecap:butt;stroke-linejoin:miter;stroke-opacity:1"
       d="m 45.714158,97.239583 v 2.645834"
       id="path298-9"
       inkscape:connector-curvature="0" />
    <path
       style="fill:none;stroke:#000000;stroke-width:0.26458332px;stroke-linecap:butt;stroke-linejoin:miter;stroke-opacity:1"
       d="m 46.360841,97.239583 v 2.645834"
       id="path298-8"
       inkscape:connector-curvature="0" />
    <path
       style="fill:none;stroke:#000000;stroke-width:0.26458332px;stroke-linecap:butt;stroke-linejoin:miter;stroke-opacity:1"
       d="m 47.095833,97.239583 v 2.645834"
       id="path298-9-4"
       inkscape:connector-curvature="0" />
    <path
       style="fill:none;stroke:#000000;stroke-width:0.26458332px;stroke-linecap:butt;stroke-linejoin:miter;stroke-opacity:1"
       d="M 47.889583,97.504167 44.185416,99.35625"
       id="path333"
       inkscape:connector-curvature="0" />
    <path
       style="fill:none;stroke:#000000;stroke-width:0.26458332px;stroke-linecap:butt;stroke-linejoin:miter;stroke-opacity:1"
       d="m 44.979167,97.239583 v 2.645834"
       id="path298-81"
       inkscape:connector-curvature="0" />
    <path
       style="fill:none;stroke:#000000;stroke-width:0.26458332px;stroke-linecap:butt;stroke-linejoin:miter;stroke-opacity:1"
       d="M 45.772917,100.67917 V 103.325"
       id="path298-9-0"
       inkscape:connector-curvature="0" />
    <path
       style="fill:none;stroke:#000000;stroke-width:0.26458332px;stroke-linecap:butt;stroke-linejoin:miter;stroke-opacity:1"
       d="M 45.037926,100.67917 V 103.325"
       id="path298-81-3"
       inkscape:connector-curvature="0" />
    <path
       style="fill:none;stroke:#000000;stroke-width:0.26458332px;stroke-linecap:butt;stroke-linejoin:miter;stroke-opacity:1"
       d="m 45.037925,104.38334 v 2.64583"
       id="path298-81-3-0"
       inkscape:connector-curvature="0" />
  </g>
</svg>
