<?xml version="1.0" encoding="UTF-8" standalone="no"?>
<!-- Created with Inkscape (http://www.inkscape.org/) -->

<svg
   xmlns:dc="http://purl.org/dc/elements/1.1/"
   xmlns:cc="http://creativecommons.org/ns#"
   xmlns:rdf="http://www.w3.org/1999/02/22-rdf-syntax-ns#"
   xmlns:svg="http://www.w3.org/2000/svg"
   xmlns="http://www.w3.org/2000/svg"
   xmlns:sodipodi="http://sodipodi.sourceforge.net/DTD/sodipodi-0.dtd"
   xmlns:inkscape="http://www.inkscape.org/namespaces/inkscape"
   width="210mm"
   height="297mm"
   viewBox="0 0 210 297"
   version="1.1"
   id="svg8"
   inkscape:version="0.92.2 2405546, 2018-03-11"
   sodipodi:docname="project_ppl.svg">
  <defs
     id="defs2" />
  <sodipodi:namedview
     id="base"
     pagecolor="#ffffff"
     bordercolor="#666666"
     borderopacity="1.0"
     inkscape:pageopacity="0.0"
     inkscape:pageshadow="2"
     inkscape:zoom="1.0675081"
     inkscape:cx="442.14136"
     inkscape:cy="763.92277"
     inkscape:document-units="mm"
     inkscape:current-layer="layer1"
     showgrid="false"
     inkscape:window-width="1916"
     inkscape:window-height="1161"
     inkscape:window-x="1050"
     inkscape:window-y="18"
     inkscape:window-maximized="0" />
  <metadata
     id="metadata5">
    <rdf:RDF>
      <cc:Work
         rdf:about="">
        <dc:format>image/svg+xml</dc:format>
        <dc:type
           rdf:resource="http://purl.org/dc/dcmitype/StillImage" />
        <dc:title></dc:title>
      </cc:Work>
    </rdf:RDF>
  </metadata>
  <g
     inkscape:label="Layer 1"
     inkscape:groupmode="layer"
     id="layer1">
    <ellipse
       style="opacity:1;fill:#6282e2;fill-opacity:1;stroke:none;stroke-width:0.22603877"
       id="path4645"
       cx="135.29935"
       cy="50.727535"
       rx="14.832204"
       ry="15.024175" />
    <path
       style="fill:#c74646;fill-opacity:1;stroke:none;stroke-width:0.21861966"
       d="m 70.669245,35.664519 c 13.84975,-1.611034 17.785446,-1.487108 32.998375,0 1.23926,10.226587 1.23926,20.329248 0,29.936207 -10.999456,0 -21.998916,0 -32.998375,0 -1.074115,-10.247264 -1.091603,-19.98252 0,-29.936207 z"
       id="rect3713"
       inkscape:connector-curvature="0"
       sodipodi:nodetypes="ccccc" />
    <circle
       style="fill:#000000;fill-opacity:1;stroke:none;stroke-width:0.26458332"
       id="path4574"
       cx="128.0107"
       cy="53.465836"
       r="0.73499119" />
    <circle
       style="fill:#000000;fill-opacity:1;stroke:none;stroke-width:0.26458332"
       id="path4574-3"
       cx="140.15016"
       cy="53.465836"
       r="0.73499119" />
    <path
       style="fill:none;stroke:#000000;stroke-width:0.265;stroke-linecap:round;stroke-linejoin:miter;stroke-opacity:1;stroke-miterlimit:4;stroke-dasharray:none"
       d="m 132.71341,58.674903 c 0,0 1.16393,1.295861 2.45259,0.08861"
       id="path4591"
       inkscape:connector-curvature="0"
       sodipodi:nodetypes="cc" />
    <g
       id="g4673"
       transform="translate(-45.451799,-9.3117272)">
      <path
         sodipodi:nodetypes="cc"
         inkscape:connector-curvature="0"
         id="path4647"
         d="m 126.62487,55.123342 c 0,0 1.09797,-2.057558 2.1914,0"
         style="fill:none;stroke:#000000;stroke-width:0.20299585px;stroke-linecap:butt;stroke-linejoin:miter;stroke-opacity:1" />
      <path
         sodipodi:nodetypes="cc"
         inkscape:connector-curvature="0"
         id="path4647-6"
         d="m 137.4064,55.123342 c 0,0 1.09797,-2.057558 2.1914,0"
         style="fill:none;stroke:#000000;stroke-width:0.20299585px;stroke-linecap:butt;stroke-linejoin:miter;stroke-opacity:1" />
      <path
         inkscape:connector-curvature="0"
         id="path4664"
         d="m 132.6194,58.691123 a 0.92944256,0.92944256 0 0 0 -0.0191,0.185518 0.92944256,0.92944256 0 0 0 0.92966,0.929658 0.92944256,0.92944256 0 0 0 0.92966,-0.929658 0.92944256,0.92944256 0 0 0 -0.0202,-0.185518 z"
         style="opacity:1;fill:#000000;fill-opacity:0.95833333;stroke:none;stroke-width:0.26458332" />
    </g>
    <path
       style="opacity:1;fill:#3cab5a;fill-opacity:1;stroke:none;stroke-width:0.26499999;stroke-linecap:round;stroke-miterlimit:4;stroke-dasharray:none"
       inkscape:transform-center-y="-4.96206"
       d="m 105.16828,104.15132 c -13.912988,0.87629 -20.640422,1.57732 -34.378153,0 3.626603,-10.099374 9.181037,-22.652352 17.189075,-29.772351 7.657523,7.295257 12.510928,19.322462 17.189078,29.772351 z"
       id="path4704"
       inkscape:connector-curvature="0"
       sodipodi:nodetypes="cccc" />
    <circle
       style="fill:#000000;fill-opacity:1;stroke:none;stroke-width:0.26458332"
       id="path4574-7"
       cx="81.8452"
       cy="97.732361"
       r="0.73499119" />
    <path
       style="fill:#000000;fill-opacity:1;stroke:none;stroke-width:0.99999994"
       d="M 346.36133 369.48047 A 2.7779195 2.7779195 0 0 0 346.30078 370.04492 A 2.7779195 2.7779195 0 0 0 349.08008 372.82227 A 2.7779195 2.7779195 0 0 0 351.85742 370.04492 A 2.7779195 2.7779195 0 0 0 351.79688 369.48047 L 346.36133 369.48047 z "
       transform="scale(0.26458333)"
       id="path4574-7-5" />
    <path
       style="fill:none;stroke:#000000;stroke-width:0.26458332px;stroke-linecap:butt;stroke-linejoin:miter;stroke-opacity:1"
       d="m 85.876113,100.6241 c 1.237276,-0.19123 3.933194,-0.34254 3.930458,0.44429"
       id="path4746"
       inkscape:connector-curvature="0"
       sodipodi:nodetypes="cc" />
    <path
       style="fill:none;stroke:#000000;stroke-width:0.26458332px;stroke-linecap:butt;stroke-linejoin:miter;stroke-opacity:1"
       d="m 79.828521,97.301389 3.240437,-0.456371"
       id="path4746-3"
       inkscape:connector-curvature="0"
       sodipodi:nodetypes="cc" />
    <path
       style="fill:none;stroke:#000000;stroke-width:0.26458332px;stroke-linecap:butt;stroke-linejoin:miter;stroke-opacity:1"
       d="m 90.78764,97.715138 3.135936,0.02467"
       id="path4746-3-5"
       inkscape:connector-curvature="0"
       sodipodi:nodetypes="cc" />
    <path
       style="opacity:1;fill:#e5c757;fill-opacity:1;stroke:none;stroke-width:0.24606159;stroke-linecap:round;stroke-miterlimit:4;stroke-dasharray:none"
       d="m 118.47295,75.692721 c 6.89853,-0.899461 13.92098,-0.899461 21.06736,0 0.61963,10.151046 0.74355,20.302091 0,30.067659 -6.89853,0.89945 -14.16883,0.77095 -21.06736,0 -0.99141,-9.765568 -0.86748,-20.045107 0,-30.067659 z"
       id="rect4781"
       inkscape:connector-curvature="0"
       sodipodi:nodetypes="ccccc" />
    <circle
       style="fill:#000000;fill-opacity:1;stroke:none;stroke-width:0.26458332"
       id="path4574-7-6"
       cx="124.17353"
       cy="96.488243"
       r="0.73499119" />
    <circle
       style="fill:#000000;fill-opacity:1;stroke:none;stroke-width:0.26458332"
       id="path4574-7-6-2"
       cx="132.60048"
       cy="96.736099"
       r="0.73499119" />
    <path
       style="fill:#000000;fill-opacity:1;stroke:none;stroke-width:2.26456285"
       d="M 486.88086 378.76367 A 6.2907736 6.2907736 0 0 0 480.58984 385.05469 A 6.2907736 6.2907736 0 0 0 481.6875 388.5918 L 492.08398 388.5918 A 6.2907736 6.2907736 0 0 0 493.17188 385.05469 A 6.2907736 6.2907736 0 0 0 486.88086 378.76367 z "
       transform="scale(0.26458333)"
       id="path4574-7-6-2-9" />
    <path
       style="fill:none;stroke:#000000;stroke-width:0.26499999;stroke-linecap:round;stroke-linejoin:miter;stroke-miterlimit:4;stroke-dasharray:none;stroke-opacity:1"
       d="m 122.41728,94.840574 c 0,0 0.22932,-1.263099 1.48969,-1.139173"
       id="path4836"
       inkscape:connector-curvature="0"
       sodipodi:nodetypes="cc" />
    <path
       style="fill:none;stroke:#000000;stroke-width:0.26499999;stroke-linecap:round;stroke-linejoin:miter;stroke-miterlimit:4;stroke-dasharray:none;stroke-opacity:1"
       d="m 133.7736,94.12219 c 0,0 -0.53602,-0.781141 -1.79639,-0.657215"
       id="path4836-2"
       inkscape:connector-curvature="0"
       sodipodi:nodetypes="cc" />
  </g>
</svg>
